<svg xmlns="http://www.w3.org/2000/svg" xmlns:xlink="http://www.w3.org/1999/xlink" viewBox="0 0 255.12 155.91"><defs><style>.cls-1{isolation:isolate;}.cls-2{fill:#fffdfd;}.cls-13,.cls-3{mix-blend-mode:multiply;}.cls-3{fill:url(#radial-gradient);}.cls-4{font-size:6.08px;font-family:Arial-BoldMT, Arial;}.cls-4,.cls-8{fill:#1b5333;}.cls-4,.cls-7{font-weight:700;}.cls-5{letter-spacing:-0.07em;}.cls-6{letter-spacing:-0.02em;}.cls-7{font-size:5.78px;font-family:Poppins-SemiBold, Poppins;letter-spacing:0.2em;}.cls-7,.cls-9{fill:#f48124;}.cls-10{fill:#77ac4a;}.cls-11{fill:#bec730;}.cls-12{mix-blend-mode:overlay;fill:url(#linear-gradient);}.cls-13{fill:url(#radial-gradient-2);}</style><radialGradient id="radial-gradient" cx="-1177.35" cy="99.45" r="38.44" gradientTransform="matrix(0.01, 1, -0.3, 0, 122.53, 1248.48)" gradientUnits="userSpaceOnUse"><stop offset="0.01" stop-color="#ff7f00"/><stop offset="1" stop-color="#fff"/></radialGradient><linearGradient id="linear-gradient" x1="202.13" y1="51.91" x2="243.49" y2="10.56" gradientUnits="userSpaceOnUse"><stop offset="0" stop-color="#fff"/><stop offset="1" stop-color="#fffdfd" stop-opacity="0"/></linearGradient><radialGradient id="radial-gradient-2" cx="-505.95" cy="113.63" r="51.43" gradientTransform="matrix(-0.92, -0.9, 0.15, -0.15, -325.58, -438.76)" gradientUnits="userSpaceOnUse"><stop offset="0" stop-color="#1b307f"/><stop offset="1" stop-color="#fff"/></radialGradient></defs><title>business card_front bg</title><g class="cls-1"><g id="Layer_1" data-name="Layer 1"><rect class="cls-2" x="-8.33" y="-8.5" width="271.95" height="173.07"/><rect class="cls-3" x="89.72" y="33.9" width="20" height="81.59"/><text class="cls-4" transform="translate(8.57 89.05)">HOSPI<tspan class="cls-5" x="18.91" y="0">T</tspan><tspan x="22.17" y="0">ALIT</tspan><tspan class="cls-6" x="35.66" y="0">Y</tspan><tspan x="39.61" y="0" xml:space="preserve">  SE</tspan><tspan class="cls-6" x="51.09" y="0">R</tspan><tspan x="55.36" y="0">VICES</tspan></text><text class="cls-7" transform="translate(24.01 95.93)">AUSTRALIA</text><path class="cls-8" d="M27.53,43.88,33,40.1s5.6,28.13,28.73,37.35C61.7,77.46,40.84,76.25,27.53,43.88Z"/><circle class="cls-9" cx="46.88" cy="52.98" r="6.55"/><path class="cls-8" d="M64.48,52l-4.74-4.63S49.55,74.15,25.2,79.39C25.2,79.39,46,81.67,64.48,52Z"/><path class="cls-10" d="M23.64,54l4.18-4.24s6,13.41,15,20.19l-2.58,1.82A62.25,62.25,0,0,1,23.64,54Z"/><path class="cls-10" d="M44.33,74.18l2.36-1.45S53.07,77,59.41,77.94C59.41,77.94,52.47,78.65,44.33,74.18Z"/><path class="cls-11" d="M24.26,59.23s6.9,9.72,14,13.49L35.23,74.8a69,69,0,0,1-14-10.85Z"/><path class="cls-11" d="M42.85,75.34s7.8,4,16,3.77c0,0-7,2.72-19.13-2.15Z"/><path class="cls-9" d="M206.18,130.63l-34.62,33.94h92.07L229,130.63A16.37,16.37,0,0,0,206.18,130.63Z"/><path class="cls-8" d="M221.85,164.56H-8.33V140H186.37a25.4,25.4,0,0,1,17.78,7.23Z"/><polygon class="cls-10" points="-8.32 139.99 -8.32 164.56 107.99 164.56 82.91 139.99 -8.32 139.99"/><path class="cls-10" d="M263.62-8.65H144.12l42,41.16a26.33,26.33,0,0,0,36.71,0l40.8-40Z"/><path class="cls-8" d="M232.29-8.65H112.78l42,41.16a26.33,26.33,0,0,0,36.71,0l40.8-40Z"/><polygon class="cls-12" points="263.62 83 263.62 -8.65 170.12 -8.65 263.62 83"/><polygon class="cls-13" points="146.04 -8.65 100.61 -8.65 178.83 68.02 201.55 45.75 146.04 -8.65"/></g></g></svg>