<svg id="Layer_1" data-name="Layer 1" xmlns="http://www.w3.org/2000/svg" viewBox="0 0 10.25 8.84"><defs><style>.cls-1{fill:#f48124;}</style></defs><title>icon</title><path class="cls-1" d="M2.23,4.7H.69a4.26,4.26,0,0,0,.54,1.83,6.45,6.45,0,0,1,1.18-.36A7.76,7.76,0,0,1,2.23,4.7Z"/><path class="cls-1" d="M2.41,2.67a6.46,6.46,0,0,1-1.18-.36A4.26,4.26,0,0,0,.69,4.22H2.23A7.79,7.79,0,0,1,2.41,2.67Z"/><path class="cls-1" d="M8.06,4.22h1.5A4.26,4.26,0,0,0,9,2.33a6.55,6.55,0,0,1-1.15.34A7.8,7.8,0,0,1,8.06,4.22Z"/><path class="cls-1" d="M7.39,2.77a14.09,14.09,0,0,1-2,.17V4.22H7.57A7.15,7.15,0,0,0,7.39,2.77Z"/><path class="cls-1" d="M5.36.09V2.46a13.69,13.69,0,0,0,1.9-.15C6.87,1.09,6.17.22,5.36.09Z"/><path class="cls-1" d="M3,2.3a13.59,13.59,0,0,0,1.86.15V.09A3,3,0,0,0,3,2.3Z"/><path class="cls-1" d="M2.71,4.22H4.88V2.93a14,14,0,0,1-2-.17A7.14,7.14,0,0,0,2.71,4.22Z"/><path class="cls-1" d="M2.89,6.08a14,14,0,0,1,2-.17V4.7H2.71A7.29,7.29,0,0,0,2.89,6.08Z"/><path class="cls-1" d="M4.88,8.75V6.39A13.62,13.62,0,0,0,3,6.54,2.93,2.93,0,0,0,4.88,8.75Z"/><path class="cls-1" d="M5.36,6.39V8.76c.82-.13,1.52-1,1.91-2.22A13.67,13.67,0,0,0,5.36,6.39Z"/><path class="cls-1" d="M7.57,4.7H5.36V5.91a14,14,0,0,1,2,.17A7.3,7.3,0,0,0,7.57,4.7Z"/><path class="cls-1" d="M7.87,6.17A6.56,6.56,0,0,1,9,6.51,4.26,4.26,0,0,0,9.56,4.7H8.06A7.76,7.76,0,0,1,7.87,6.17Z"/><path class="cls-1" d="M8.76,1.92a4.45,4.45,0,0,0-2-1.55,4.73,4.73,0,0,1,1,1.85A6.27,6.27,0,0,0,8.76,1.92Z"/><path class="cls-1" d="M3.55.35A4.45,4.45,0,0,0,1.5,1.91a6.24,6.24,0,0,0,1,.3A4.69,4.69,0,0,1,3.55.35Z"/><path class="cls-1" d="M1.5,6.93A4.45,4.45,0,0,0,3.55,8.49a4.69,4.69,0,0,1-1-1.86A6.24,6.24,0,0,0,1.5,6.93Z"/><path class="cls-1" d="M6.75,8.47a4.45,4.45,0,0,0,2-1.55,6.37,6.37,0,0,0-1-.29A4.72,4.72,0,0,1,6.75,8.47Z"/></svg>